<?xml version="1.0" encoding="UTF-8"?>
<svg width="500pt" height="500pt" version="1.1" viewBox="0 0 300 300" xmlns="http://www.w3.org/2000/svg">
 <defs>
  <clipPath id="a">
   <path d="m139.21 139.21h473.58v473.58h-473.58z"/>
  </clipPath>
 </defs>
 <g clip-path="url(#a)">
  <path d="m612.76 612.79-473.52-1.3555v-472.23l473.52 1.3516zm-303.75-27.398 277.2 0.78906 0.003907-419.16-125.09-0.35938v124.34l124.88 0.16406-0.027344 17.664-124.85-0.16406v134.43l124.88 0.17188-0.027344 17.664-124.85-0.16016v124.93h-17.664v-124.95l-134.44-0.17969v124.82zm-143.21-0.41016 125.55 0.35938v-124.79l-125.33-0.17578 0.023437-17.664 125.31 0.16406v-134.43l-125.33-0.17188 0.023437-17.664 125.31 0.16406v-124.46h17.664v124.5l134.44 0.17969v-124.37l-277.66-0.79688zm143.21-142.09 134.44 0.17969v-134.43l-134.44-0.17969z"/>
 </g>
 <path d="m574.5 523.16c0 28.348-22.988 51.336-51.336 51.336-28.352 0-51.336-22.988-51.336-51.336 0-28.352 22.984-51.336 51.336-51.336 28.352 0 51.336 22.984 51.336 51.336z"/>
 <path d="m574.5 377.14c0 28.352-22.988 51.336-51.336 51.336-28.352 0-51.336-22.988-51.336-51.336 0-28.348 22.984-51.336 51.336-51.336 28.352-0.003906 51.336 22.98 51.336 51.336z"/>
 <path d="m423.91 520.88c0 28.352-22.988 51.34-51.336 51.34s-51.336-22.988-51.336-51.34c0-28.348 22.988-51.332 51.336-51.332s51.336 22.98 51.336 51.332z"/>
 <path d="m277.89 520.88c0 28.352-22.984 51.34-51.336 51.34-28.348 0-51.336-22.988-51.336-51.34 0-28.348 22.988-51.332 51.336-51.332 28.352 0 51.336 22.98 51.336 51.332z"/>
 <path d="m423.91 228.84c0 28.352-22.988 51.336-51.336 51.336s-51.336-22.984-51.336-51.336c0-28.352 22.988-51.336 51.336-51.336s51.336 22.984 51.336 51.336z"/>
</svg>
